<?xml version="1.0" encoding="UTF-8" standalone="no"?>
<svg
   xmlns:dc="http://purl.org/dc/elements/1.1/"
   xmlns:cc="http://creativecommons.org/ns#"
   xmlns:rdf="http://www.w3.org/1999/02/22-rdf-syntax-ns#"
   xmlns:svg="http://www.w3.org/2000/svg"
   xmlns="http://www.w3.org/2000/svg"
   xmlns:sodipodi="http://sodipodi.sourceforge.net/DTD/sodipodi-0.dtd"
   xmlns:inkscape="http://www.inkscape.org/namespaces/inkscape"
   width="64"
   height="64"
   viewBox="0 0 64 64"
   version="1.1"
   id="svg3905"
   sodipodi:docname="icon.svg"
   style="fill:none"
   inkscape:version="0.92.4 (5da689c313, 2019-01-14)"
   inkscape:export-filename="/home/glow/Downloads/spotify-music-videos/spotivids/gui/icon256x256.png"
   inkscape:export-xdpi="96"
   inkscape:export-ydpi="96">
  <metadata
     id="metadata3911">
    <rdf:RDF>
      <cc:Work
         rdf:about="">
        <dc:format>image/svg+xml</dc:format>
        <dc:type
           rdf:resource="http://purl.org/dc/dcmitype/StillImage" />
        <dc:title></dc:title>
      </cc:Work>
    </rdf:RDF>
  </metadata>
  <defs
     id="defs3909" />
  <sodipodi:namedview
     pagecolor="#ffffff"
     bordercolor="#666666"
     borderopacity="1"
     objecttolerance="10"
     gridtolerance="10"
     guidetolerance="10"
     inkscape:pageopacity="0"
     inkscape:pageshadow="2"
     inkscape:window-width="1610"
     inkscape:window-height="986"
     id="namedview3907"
     showgrid="false"
     inkscape:zoom="2.5555556"
     inkscape:cx="96.402416"
     inkscape:cy="109.53319"
     inkscape:window-x="70"
     inkscape:window-y="27"
     inkscape:window-maximized="1"
     inkscape:current-layer="g3917" />
  <g
     id="g3917"
     transform="translate(-2.2644829,-191.98701)">
    <g
       id="g4803"
       transform="matrix(0.25,0,0,0.25,1.7472749,191.97)">
      <path
         style="opacity:0.2;fill:#000000;fill-opacity:1;stroke-width:0.87091565"
         inkscape:connector-curvature="0"
         id="path3919"
         d="m 237.13764,77.525208 c -2.58007,-9.515011 -10.13676,-17.017181 -19.72027,-19.578903 -17.50902,-4.757489 -87.54511,-4.757489 -87.54511,-4.757489 0,0 -70.035198,0 -87.544138,4.574507 -9.39944,2.561722 -17.14025,10.246874 -19.72051,19.761885 -4.60761,17.383138 -4.60761,53.430232 -4.60761,53.430232 0,0 0,36.23022 4.60761,53.42981 2.58026,9.5158 10.13674,17.01735 19.72051,19.57919 17.69327,4.75746 87.544138,4.75746 87.544138,4.75746 0,0 70.03609,0 87.54511,-4.57434 9.58351,-2.56184 17.1402,-10.06427 19.72027,-19.5792 4.60777,-17.3827 4.60777,-53.42998 4.60777,-53.42998 0,0 0.18441,-36.230034 -4.60777,-53.613172 z" />
      <path
         style="fill:#ff8080;stroke-width:0.86936492"
         inkscape:connector-curvature="0"
         id="path4732"
         d="m 237.52895,71.664002 c -2.58007,-9.481158 -10.13676,-16.956635 -19.72027,-19.509243 -17.50902,-4.740561 -87.54511,-4.740561 -87.54511,-4.740561 0,0 -70.035206,0 -87.544139,4.55823 -9.399441,2.552608 -17.140259,10.210416 -19.720517,19.691574 -4.60761,17.321287 -4.60761,53.240128 -4.60761,53.240128 0,0 0,36.10131 4.60761,53.23971 2.580258,9.48194 10.136747,16.9568 19.720517,19.50952 17.693261,4.74054 87.544139,4.74054 87.544139,4.74054 0,0 70.03609,0 87.54511,-4.55807 9.58351,-2.55273 17.1402,-10.02846 19.72027,-19.50953 4.60777,-17.32086 4.60777,-53.23988 4.60777,-53.23988 0,0 0.18441,-36.101131 -4.60777,-53.422418 z" />
      <path
         d="m 237.52895,75.58212 c -2.58007,-9.367272 -10.13676,-16.752955 -19.72027,-19.274902 -17.50902,-4.683619 -87.54511,-4.683619 -87.54511,-4.683619 0,0 -70.035206,0 -87.544139,4.503478 -9.399441,2.521947 -17.140259,10.087771 -19.720517,19.455043 -4.60761,17.113229 -4.60761,52.60063 -4.60761,52.60063 0,0 0,35.66767 4.60761,52.60021 2.580258,9.36804 10.136747,16.75311 19.720517,19.27518 17.693261,4.68359 87.544139,4.68359 87.544139,4.68359 0,0 70.03609,0 87.54511,-4.50332 9.58351,-2.52206 17.1402,-9.90799 19.72027,-19.27519 4.60777,-17.1128 4.60777,-52.60037 4.60777,-52.60037 0,0 0.18441,-35.667501 -4.60777,-52.78073 z"
         id="path3897"
         inkscape:connector-curvature="0"
         style="fill:#ff0000;stroke-width:0.86412787" />
      <path
         style="fill:#9e2121;fill-opacity:1;stroke-width:0.87400889"
         inkscape:connector-curvature="0"
         id="path4726"
         d="m 159.68796,163.69142 c 2.18765,1.33287 5.0509,0.64414 6.38464,-1.52689 1.34247,-2.17192 0.64938,-5.00546 -1.53825,-6.33833 -19.62763,-11.90748 -43.95916,-14.67809 -72.323813,-8.24452 -2.503949,0.56461 -4.062744,3.03631 -3.490968,5.51675 0.569067,2.48131 3.058769,4.03442 5.556512,3.46982 25.919789,-5.87946 47.929079,-3.47856 65.411879,7.12317 z" />
      <path
         d="m 159.68796,161.69142 c 2.18765,1.33287 5.0509,0.64414 6.38464,-1.52689 1.34247,-2.17192 0.64938,-5.00546 -1.53825,-6.33833 -19.62763,-11.90748 -43.95916,-14.67809 -72.323813,-8.24452 -2.503949,0.56461 -4.062744,3.03631 -3.490968,5.51675 0.569067,2.48131 3.058769,4.03442 5.556512,3.46982 25.919789,-5.87946 47.929079,-3.47856 65.411879,7.12317 z"
         id="path3899"
         inkscape:connector-curvature="0"
         style="fill:#ffffff;stroke-width:0.87400889" />
      <path
         style="fill:#9e2121;fill-opacity:1;stroke-width:0.87400889"
         inkscape:connector-curvature="0"
         id="path4728"
         d="m 167.20181,143.93619 c 2.72953,1.66848 6.30423,0.81196 7.98496,-1.9001 1.68072,-2.70592 0.81806,-6.25379 -1.91147,-7.92209 -22.98555,-14.02225 -56.60519,-17.96806 -83.647898,-9.82221 -3.064974,0.92689 -4.796211,4.14001 -3.871509,7.18811 0.931868,3.04277 4.17479,4.76056 7.245096,3.83987 23.674381,-7.13426 54.185151,-3.59715 74.200821,8.61642 z" />
      <path
         d="m 167.20181,141.93619 c 2.72953,1.66848 6.30423,0.81196 7.98496,-1.9001 1.68072,-2.70592 0.81806,-6.25379 -1.91147,-7.92209 -22.98555,-14.02225 -56.60519,-17.96806 -83.647898,-9.82221 -3.064974,0.92689 -4.796211,4.14001 -3.871509,7.18811 0.931868,3.04277 4.17479,4.76056 7.245096,3.83987 23.674381,-7.13426 54.185151,-3.59715 74.200821,8.61642 z"
         id="path3901"
         inkscape:connector-curvature="0"
         style="fill:#ffffff;stroke-width:0.87400889" />
      <path
         style="fill:#9e2121;fill-opacity:1;stroke-width:0.87400889"
         inkscape:connector-curvature="0"
         id="path4730"
         d="m 89.461166,112.5286 c 22.913194,-6.90389 62.509294,-5.60276 86.507834,8.54833 h 0.004 c 3.29939,1.95079 7.58554,0.86771 9.54156,-2.41777 1.96478,-3.28112 0.88013,-7.52444 -2.43674,-9.47443 -27.63033,-16.283656 -71.35612,-17.815182 -97.659602,-9.88827 -3.682112,1.11043 -5.757446,4.97066 -4.642474,8.62515 1.115061,3.65275 5.006149,5.7148 8.685639,4.60699 z" />
      <path
         d="m 89.461166,110.5286 c 22.913194,-6.90389 62.509294,-5.60276 86.507834,8.54833 h 0.004 c 3.29939,1.95079 7.58554,0.86771 9.54156,-2.41777 1.96478,-3.28112 0.88013,-7.52444 -2.43674,-9.47443 -27.63033,-16.283659 -71.35612,-17.815185 -97.659602,-9.888273 -3.682112,1.110428 -5.757446,4.970663 -4.642474,8.625153 1.115061,3.65275 5.006149,5.7148 8.685639,4.60699 z"
         id="path3903"
         inkscape:connector-curvature="0"
         style="fill:#ffffff;stroke-width:0.87400889" />
    </g>
  </g>
</svg>
