<?xml version="1.0" encoding="UTF-8" standalone="no"?>
<svg
   xmlns:dc="http://purl.org/dc/elements/1.1/"
   xmlns:cc="http://creativecommons.org/ns#"
   xmlns:rdf="http://www.w3.org/1999/02/22-rdf-syntax-ns#"
   xmlns:svg="http://www.w3.org/2000/svg"
   xmlns="http://www.w3.org/2000/svg"
   xmlns:sodipodi="http://sodipodi.sourceforge.net/DTD/sodipodi-0.dtd"
   xmlns:inkscape="http://www.inkscape.org/namespaces/inkscape"
   width="32.906025"
   height="32.906025"
   viewBox="0 0 32.906025 32.906025"
   version="1.1"
   id="svg76"
   sodipodi:docname="menu.svg"
   inkscape:version="0.92.4 5da689c313, 2019-01-14">
  <metadata
     id="metadata82">
    <rdf:RDF>
      <cc:Work
         rdf:about="">
        <dc:format>image/svg+xml</dc:format>
        <dc:type
           rdf:resource="http://purl.org/dc/dcmitype/StillImage" />
      </cc:Work>
    </rdf:RDF>
  </metadata>
  <defs
     id="defs80" />
  <sodipodi:namedview
     pagecolor="#ffffff"
     bordercolor="#666666"
     borderopacity="1"
     objecttolerance="10"
     gridtolerance="10"
     guidetolerance="10"
     inkscape:pageopacity="0"
     inkscape:pageshadow="2"
     inkscape:window-width="1920"
     inkscape:window-height="1047"
     id="namedview78"
     showgrid="false"
     inkscape:zoom="8.6458333"
     inkscape:cx="-5.2302625"
     inkscape:cy="10.359705"
     inkscape:window-x="0"
     inkscape:window-y="0"
     inkscape:window-maximized="1"
     inkscape:current-layer="svg76" />
  <path
     d="M 4.4530125,4.4530125 H 28.453012 V 28.453013 H 4.4530125 Z"
     id="path72"
     inkscape:connector-curvature="0"
     style="fill:none" />
  <circle
     style="fill:#ffffff;fill-opacity:1;stroke-width:1.3515439"
     id="path84"
     cx="16.453012"
     cy="16.453012"
     r="16.453012" />
  <path
     d="M 8.4530125,22.453013 H 24.453012 c 0.55,0 1,-0.45 1,-1 0,-0.55 -0.45,-1 -1,-1 H 8.4530125 c -0.55,0 -1,0.45 -1,1 0,0.55 0.45,1 1,1 z m 0,-5 H 24.453012 c 0.55,0 1,-0.45 1,-1 0,-0.55 -0.45,-1 -1,-1 H 8.4530125 c -0.55,0 -1,0.45 -1,1 0,0.55 0.45,1 1,1 z m -1,-6 c 0,0.55 0.45,1 1,1 H 24.453012 c 0.55,0 1,-0.45 1,-1 0,-0.55 -0.45,-1 -1,-1 H 8.4530125 c -0.55,0 -1,0.45 -1,1 z"
     id="path74"
     inkscape:connector-curvature="0" />
</svg>
