<?xml version="1.0" encoding="UTF-8" standalone="no"?>
<!-- Generator: Adobe Illustrator 17.1.0, SVG Export Plug-In . SVG Version: 6.00 Build 0)  -->

<svg
   xmlns:dc="http://purl.org/dc/elements/1.1/"
   xmlns:cc="http://creativecommons.org/ns#"
   xmlns:rdf="http://www.w3.org/1999/02/22-rdf-syntax-ns#"
   xmlns:svg="http://www.w3.org/2000/svg"
   xmlns="http://www.w3.org/2000/svg"
   xmlns:sodipodi="http://sodipodi.sourceforge.net/DTD/sodipodi-0.dtd"
   xmlns:inkscape="http://www.inkscape.org/namespaces/inkscape"
   version="1.1"
   id="Capa_1"
   x="0px"
   y="0px"
   viewBox="0 0 203.6747 203.82651"
   xml:space="preserve"
   sodipodi:docname="default.svg"
   inkscape:version="0.92.4 5da689c313, 2019-01-14"
   width="203.6747"
   height="203.82651"><metadata
   id="metadata3827"><rdf:RDF><cc:Work
       rdf:about=""><dc:format>image/svg+xml</dc:format><dc:type
         rdf:resource="http://purl.org/dc/dcmitype/StillImage" /></cc:Work></rdf:RDF></metadata><defs
   id="defs3825" /><sodipodi:namedview
   pagecolor="#ffffff"
   bordercolor="#666666"
   borderopacity="1"
   objecttolerance="10"
   gridtolerance="10"
   guidetolerance="10"
   inkscape:pageopacity="0"
   inkscape:pageshadow="2"
   inkscape:window-width="1920"
   inkscape:window-height="1047"
   id="namedview3823"
   showgrid="false"
   inkscape:zoom="2.8231293"
   inkscape:cx="117.24579"
   inkscape:cy="101.91324"
   inkscape:window-x="0"
   inkscape:window-y="0"
   inkscape:window-maximized="1"
   inkscape:current-layer="Capa_1" />
<path
   d="M 203.6747,13.409639 C 203.6747,6.003942 199.02206,0 193.28314,0 H 10.391567 C 4.6526505,0 0,6.003942 0,13.409639 V 190.41686 c 0,7.4057 4.6526505,13.40964 10.391567,13.40964 H 193.28314 c 5.73892,0 10.39156,-6.00394 10.39156,-13.40964 z M 85.903614,71.637863 c 0,-2.39585 1.105666,-4.60844 2.713589,-5.80637 1.607226,-1.19793 3.64605,-1.19793 5.253284,0 l 25.664393,19.0989 c 1.60723,1.19793 2.61244,3.41052 2.61244,5.80637 0,2.39586 -0.98304,4.60845 -2.59096,5.80638 L 93.924523,115.64204 c -0.803613,0.59896 -1.698676,0.89844 -2.595815,0.89844 -0.89714,0 -1.908582,-0.29948 -2.712202,-0.89844 -1.607226,-1.19793 -2.712195,-3.41052 -2.712195,-5.80638 V 71.637863 Z M 182.42949,177.9012 68.032532,178.25542 c -0.977967,4.415 -5.116436,7.07913 -8.029519,7.24458 -2.870151,0 -8.737952,-2.29265 -8.737952,-6.70482 V 177.9012 H 21.013825 c -2.87015,0 -5.195783,-3.00108 -5.195783,-6.70482 0,-3.70374 2.325633,-6.70482 5.195783,-6.70482 h 30.481929 c 0,-3.70374 5.159367,-6.3506 8.029518,-6.3506 2.87015,0 7.321084,2.64686 7.321084,6.3506 H 182.42949 c 2.87015,0 5.19579,3.00108 5.19579,6.70482 0,3.70374 -2.32564,6.70482 -5.19579,6.70482 z"
   id="path3790"
   style="fill:#999999;stroke-width:0.7869693"
   inkscape:connector-curvature="0"
   sodipodi:nodetypes="sssssssssccccsccscsccsccscssscscsss" />
<g
   id="g3792"
   transform="translate(-15.585542,-45.086747)">
</g>
<g
   id="g3794"
   transform="translate(-15.585542,-45.086747)">
</g>
<g
   id="g3796"
   transform="translate(-15.585542,-45.086747)">
</g>
<g
   id="g3798"
   transform="translate(-15.585542,-45.086747)">
</g>
<g
   id="g3800"
   transform="translate(-15.585542,-45.086747)">
</g>
<g
   id="g3802"
   transform="translate(-15.585542,-45.086747)">
</g>
<g
   id="g3804"
   transform="translate(-15.585542,-45.086747)">
</g>
<g
   id="g3806"
   transform="translate(-15.585542,-45.086747)">
</g>
<g
   id="g3808"
   transform="translate(-15.585542,-45.086747)">
</g>
<g
   id="g3810"
   transform="translate(-15.585542,-45.086747)">
</g>
<g
   id="g3812"
   transform="translate(-15.585542,-45.086747)">
</g>
<g
   id="g3814"
   transform="translate(-15.585542,-45.086747)">
</g>
<g
   id="g3816"
   transform="translate(-15.585542,-45.086747)">
</g>
<g
   id="g3818"
   transform="translate(-15.585542,-45.086747)">
</g>
<g
   id="g3820"
   transform="translate(-15.585542,-45.086747)">
</g>
<text
   xml:space="preserve"
   style="font-style:normal;font-weight:normal;font-size:40px;line-height:1.25;font-family:sans-serif;letter-spacing:0px;word-spacing:0px;fill:#666666;fill-opacity:1;stroke:none"
   x="30.31424"
   y="38.530121"
   id="text3831"><tspan
     sodipodi:role="line"
     id="tspan3829"
     x="30.31424"
     y="38.530121"
     style="font-style:italic;font-variant:normal;font-weight:300;font-stretch:normal;font-family:Inter;-inkscape-font-specification:'Inter Light Italic';fill:#666666">No icon</tspan></text>

</svg>