<?xml version="1.0" encoding="UTF-8" standalone="no"?>
<svg
   xmlns:dc="http://purl.org/dc/elements/1.1/"
   xmlns:cc="http://creativecommons.org/ns#"
   xmlns:rdf="http://www.w3.org/1999/02/22-rdf-syntax-ns#"
   xmlns:svg="http://www.w3.org/2000/svg"
   xmlns="http://www.w3.org/2000/svg"
   xmlns:sodipodi="http://sodipodi.sourceforge.net/DTD/sodipodi-0.dtd"
   xmlns:inkscape="http://www.inkscape.org/namespaces/inkscape"
   height="168px"
   width="168px"
   version="1.1"
   viewBox="0 0 168 168"
   id="svg3763"
   sodipodi:docname="mpris.svg"
   inkscape:version="0.92.4 5da689c313, 2019-01-14">
  <metadata
     id="metadata3769">
    <rdf:RDF>
      <cc:Work
         rdf:about="">
        <dc:format>image/svg+xml</dc:format>
        <dc:type
           rdf:resource="http://purl.org/dc/dcmitype/StillImage" />
        <dc:title />
      </cc:Work>
    </rdf:RDF>
  </metadata>
  <defs
     id="defs3767">
    <clipPath
       clipPathUnits="userSpaceOnUse"
       id="clipPath4708">
      <rect
         ry="7.3642473"
         y="-0.0037103265"
         x="-8.5311403e-05"
         height="167.99701"
         width="167.99701"
         id="rect4710"
         style="fill:#f9f9f9;fill-opacity:1;stroke-width:1.13148677" />
    </clipPath>
  </defs>
  <sodipodi:namedview
     pagecolor="#ffffff"
     bordercolor="#666666"
     borderopacity="1"
     objecttolerance="10"
     gridtolerance="10"
     guidetolerance="10"
     inkscape:pageopacity="0"
     inkscape:pageshadow="2"
     inkscape:window-width="1920"
     inkscape:window-height="1047"
     id="namedview3765"
     showgrid="false"
     inkscape:zoom="5.6568542"
     inkscape:cx="125.15805"
     inkscape:cy="23.188978"
     inkscape:window-x="0"
     inkscape:window-y="0"
     inkscape:window-maximized="1"
     inkscape:current-layer="svg3763"
     inkscape:snap-global="true"
     inkscape:snap-bbox="false" />
  <rect
     style="fill:#f9f9f9;fill-opacity:1;stroke-width:1.13148677"
     id="rect54"
     width="167.99701"
     height="167.99701"
     x="0.0014953613"
     y="0.0014953613"
     ry="7.3642473" />
  <rect
     id="rect3783"
     width="114.71186"
     height="40.677967"
     x="53.288139"
     y="127.32204"
     style="fill:#241c1c;stroke-width:1.08623946;image-rendering:auto"
     ry="6.5084743" />
  <rect
     style="fill:#241c1c;fill-opacity:1;stroke-width:0.93510342"
     id="rect3793"
     width="114.71186"
     height="22.169491"
     x="53.288139"
     y="145.83051"
     ry="0"
     clip-path="url(#clipPath4708)" />
  <rect
     style="fill:#241c1c;fill-opacity:1;stroke-width:0.45069748"
     id="rect3793-3"
     width="26.647671"
     height="22.169491"
     x="141.35233"
     y="127.32204"
     ry="0" />
  <text
     xml:space="preserve"
     style="font-style:normal;font-weight:normal;font-size:32.68906403px;line-height:1.25;font-family:sans-serif;letter-spacing:0px;word-spacing:0px;fill:#ffffff;fill-opacity:1;stroke:none;stroke-width:0.81722659"
     x="61.215862"
     y="159.339"
     id="text3775"><tspan
       sodipodi:role="line"
       id="tspan3773"
       x="61.215862"
       y="159.339"
       style="font-style:normal;font-variant:normal;font-weight:normal;font-stretch:normal;font-family:inter;-inkscape-font-specification:inter;fill:#ffffff;stroke-width:0.81722659">LINUX</tspan></text>
  <g
     id="g141"
     transform="matrix(0.95535714,0,0,0.95535714,97.06058,21.417999)">
    <path
       id="path115"
       d="M 59.957032,31.800505 A 27.999516,27.999516 0 0 1 31.999516,59.000034 27.999516,27.999516 0 0 1 4.0439996,32.000501 27.999516,27.999516 0 0 0 4.0000004,33.000484 27.999516,27.999516 0 0 0 31.999516,61 27.999516,27.999516 0 0 0 59.999032,33.000484 a 27.999516,27.999516 0 0 0 -0.04296,-1.17178 z"
       style="opacity:0.2"
       inkscape:connector-curvature="0" />
    <circle
       id="circle117"
       r="28"
       cy="32.000999"
       cx="32"
       style="fill:#fa4b8c" />
    <path
       id="path119"
       d="M 26.679608,5.4009174 C 25.96146,5.5329152 25.248553,5.6975123 24.542845,5.8853091 23.644581,6.1345047 22.755536,6.4264997 21.886691,6.7640939 21.017926,7.101888 20.170561,7.4822814 19.339935,7.9048741 18.509329,8.3278668 17.698443,8.7920588 16.914177,9.29545 c -0.784446,0.503991 -1.543173,1.045382 -2.273361,1.624972 -0.730167,0.57919 -1.428935,1.194179 -2.097563,1.843568 -0.08595,0.09 -0.173099,0.181997 -0.257816,0.273595 0.533311,3.660537 3.166745,8.060861 6.015496,11.574 a 15.999723,15.999723 0 0 0 -2.30116,8.399855 15.999723,15.999723 0 0 0 0.03516,0.992183 C 11.846201,31.717262 7.5800745,28.140524 5.6093086,23.917797 5.5061724,24.187392 5.4032721,24.457788 5.3085338,24.730383 5.0331185,25.620768 4.8061825,26.523752 4.6210457,27.437336 4.4357989,28.35072 4.2962113,29.271904 4.2030929,30.199088 4.1131005,31.096673 4.0692712,31.996257 4.0663773,32.898242 a 27.999516,27.999516 0 0 0 1.5820126,7.49587 c 3.410141,1.13418 8.1756581,1.045782 12.3825861,0.378993 a 15.999723,15.999723 0 0 0 6.882681,6.562287 c -3.536539,2.157963 -7.949063,3.878333 -12.089591,4.03113 A 27.999516,27.999516 0 0 0 26.351232,58.429 c 2.210161,-2.450758 4.101929,-6.010496 5.413906,-9.429637 a 15.999723,15.999723 0 0 0 0.234376,0.02 15.999723,15.999723 0 0 0 8.886646,-2.710953 c 0.09668,3.915932 -0.54873,8.306456 -2.253961,11.874794 a 27.999516,27.999516 0 0 0 12.769379,-6.992079 c -0.936143,-3.299543 -3.220944,-6.971679 -5.671702,-9.991827 a 15.999723,15.999723 0 0 0 2.267961,-7.999861 15.999723,15.999723 0 0 0 -0.03516,-1.058582 c 3.941932,2.143163 7.935463,5.442706 10.050626,9.339638 a 27.999516,27.999516 0 0 0 1.929647,-9.21064 c -0.0106,-0.356794 -0.01,-0.713988 -0.03516,-1.070382 -0.06606,-0.929984 -0.177377,-1.854768 -0.335934,-2.773352 -0.146917,-0.827186 -0.333914,-1.646371 -0.55467,-2.456957 -4.154929,-1.480775 -9.101043,-1.221979 -13.073974,-0.57419 a 15.999723,15.999723 0 0 0 -6.87088,-6.527288 c 4.080729,-2.501956 9.339438,-4.432723 14.003757,-4.02733 -0.323914,-0.389793 -0.659268,-0.768987 -1.003882,-1.14058 -0.649429,-0.668589 -1.326097,-1.305778 -2.038965,-1.906167 -0.712888,-0.60059 -1.457255,-1.16118 -2.226561,-1.687571 C 47.037374,9.579845 46.241928,9.088054 45.423922,8.6412614 44.605896,8.1942691 43.76299,7.7894761 42.904365,7.4264824 42.04572,7.0632887 41.170015,6.7448942 40.279411,6.469499 39.945537,6.3775005 39.612582,6.291502 39.275528,6.2117034 36.372378,8.5066637 33.876822,12.987986 32.26005,17.211513 A 15.999723,15.999723 0 0 0 32.000054,17.011517 15.999723,15.999723 0 0 0 23.152607,19.69107 C 23.032729,14.910553 23.998412,9.400048 26.679946,5.5703145 Z"
       style="opacity:0.2"
       inkscape:connector-curvature="0" />
    <path
       id="path121"
       d="m 26.679608,4.401018 c -0.718148,0.1319978 -1.431055,0.2965949 -2.136763,0.4843917 -0.898264,0.2491956 -1.787309,0.5411906 -2.656154,0.8787848 -0.868765,0.3377941 -1.71613,0.7179875 -2.546756,1.1407802 -0.830606,0.4229927 -1.641492,0.8871847 -2.425758,1.390576 -0.784446,0.5039912 -1.543173,1.0453819 -2.273361,1.6249719 -0.730167,0.5791904 -1.428935,1.1941794 -2.097563,1.8435684 -0.08595,0.09 -0.173099,0.181997 -0.257816,0.273595 0.533311,3.660337 3.166745,8.06086 6.015496,11.574 a 15.999723,15.999723 0 0 0 -2.30116,8.399854 15.999723,15.999723 0 0 0 0.03516,0.992183 C 11.846201,30.717363 7.5800745,27.140825 5.6093086,22.917898 c -0.1031362,0.269595 -0.2060365,0.53999 -0.3007748,0.812586 -0.2754153,0.890384 -0.5023513,1.793369 -0.6874881,2.706953 -0.1852468,0.913384 -0.3248344,1.834568 -0.4179528,2.761752 -0.092986,0.927584 -0.1407076,1.856768 -0.1406216,2.788952 -1.036e-4,0.659788 0.023734,1.322177 0.070311,1.980366 0.066065,0.929783 0.1773649,1.854767 0.3359342,2.773352 0.1464155,0.823385 0.3311743,1.638371 0.5507705,2.445357 3.4325406,1.367377 8.546852,1.293778 13.011575,0.58599 a 15.999723,15.999723 0 0 0 6.882681,6.562287 c -4.07333,2.485357 -9.309639,4.395524 -13.952959,3.99213 0.323914,0.389594 0.659269,0.768987 1.003883,1.140581 0.649428,0.668588 1.333897,1.305777 2.046764,1.906167 0.712888,0.600589 1.453355,1.16498 2.222562,1.691371 0.769306,0.52639 1.564753,1.014182 2.382759,1.460974 0.818025,0.446793 1.657031,0.851786 2.515556,1.214779 0.858645,0.362994 1.73437,0.685588 2.624955,0.960984 0.336674,0.092 0.675708,0.173997 1.015602,0.253995 2.89135,-2.28716 5.376307,-6.746083 6.992079,-10.95701 a 15.999723,15.999723 0 0 0 0.234376,0.02 15.999723,15.999723 0 0 0 8.886646,-2.710953 c 0.117958,4.777718 -0.844165,10.282622 -3.523339,14.109156 0.718148,-0.131997 1.431055,-0.292595 2.136763,-0.480391 0.898265,-0.249396 1.783409,-0.545191 2.652354,-0.882785 0.868765,-0.337794 1.720031,-0.717788 2.550756,-1.14058 0.830606,-0.422793 1.637572,-0.886985 2.421758,-1.390576 0.784447,-0.503592 1.543174,-1.045382 2.273361,-1.624972 0.730167,-0.57919 1.432835,-1.19458 2.101564,-1.843768 0.08594,-0.09 0.173097,-0.181997 0.257815,-0.273396 -0.533891,-3.664536 -3.174945,-8.06706 -6.027296,-11.581999 a 15.999723,15.999723 0 0 0 2.267961,-8.199858 15.999723,15.999723 0 0 0 -0.03516,-1.058582 c 4.202527,2.28476 8.490853,5.875698 10.468619,10.113025 0.103118,-0.269595 0.202136,-0.539791 0.296875,-0.812386 0.275395,-0.890585 0.506271,-1.793569 0.691388,-2.706953 0.185236,-0.913384 0.324834,-1.838368 0.417952,-2.765552 0.09298,-0.927784 0.136798,-1.860768 0.136718,-2.792952 1.04e-4,-0.659789 -0.0198,-1.318377 -0.0664,-1.976566 -0.06606,-0.929984 -0.177377,-1.854768 -0.335934,-2.773352 -0.146917,-0.827186 -0.333914,-1.646371 -0.55467,-2.456957 -4.154929,-1.480975 -9.101043,-1.222179 -13.073974,-0.57419 A 15.999723,15.999723 0 0 0 39.071996,17.66759 c 4.080729,-2.501957 9.339438,-4.432724 14.003757,-4.027331 -0.323914,-0.389793 -0.659268,-0.768986 -1.003882,-1.14058 -0.649427,-0.66859 -1.326095,-1.305778 -2.038963,-1.906168 C 49.32002,9.9929213 48.575653,9.432331 47.806347,8.9059401 47.03704,8.3797492 46.241594,7.8879577 45.423588,7.4411654 44.605562,6.9941732 43.762657,6.5893802 42.904031,6.2263865 42.045386,5.8631927 41.169681,5.5447983 40.279077,5.269403 39.945203,5.1774046 39.612248,5.0914061 39.275194,5.0116075 36.372044,7.3065678 33.876488,11.78769 32.259716,16.011417 a 15.999723,15.999723 0 0 0 -0.259996,0 15.999723,15.999723 0 0 0 -8.847447,2.679554 C 23.032395,13.910454 23.998078,8.4001489 26.679612,4.5702151 Z"
       style="fill:#ffffff"
       inkscape:connector-curvature="0" />
    <path
       id="path123"
       d="m 26.887604,24.000679 c -0.486931,-0.02 -0.887844,0.382593 -0.888004,0.872785 v 14.251153 c -6e-6,0.672189 0.722987,1.092181 1.301497,0.756387 l 6.132094,-3.562938 6.132494,-3.562738 c 0.57821,-0.336195 0.57821,-1.17598 0,-1.512174 l -6.132494,-3.562939 -6.132094,-3.562738 c -0.125938,-0.074 -0.268115,-0.113998 -0.413493,-0.117998 z"
       style="fill:#fa4b8c"
       inkscape:connector-curvature="0" />
    <path
       id="path125"
       d="m 32,3.9726562 v 0.029297 A 27.999516,27.999516 0 0 0 4,32 27.999516,27.999516 0 0 0 4.0175781,32.492188 27.999516,27.999516 0 0 1 32,5 V 4.9726562 A 27.999516,27.999516 0 0 1 59.974609,32.455078 27.999516,27.999516 0 0 0 60,31.972656 27.999516,27.999516 0 0 0 32,3.9726562 Z"
       style="opacity:0.2;fill:#ffffff"
       inkscape:connector-curvature="0" />
  </g>
  <g
     id="g52"
     transform="matrix(1.7270687,0.2331932,-0.2331932,1.7270687,63.057113,14.978408)">
    <rect
       id="rect17"
       transform="scale(-1,1)"
       ry="1.4"
       rx="1.375"
       y="3"
       x="-27"
       height="28"
       width="22"
       style="opacity:0.2" />
    <rect
       id="rect19"
       transform="scale(-1,1)"
       ry="1.4"
       rx="1.375"
       y="2"
       x="-27"
       height="28"
       width="22"
       style="fill:#e4e4e4" />
    <circle
       id="circle21"
       transform="rotate(-90)"
       r="9"
       cy="16"
       cx="-19"
       style="fill:#3f3f3f" />
    <circle
       id="circle23"
       transform="matrix(0,-1,-1,0,0,0)"
       r="7"
       cy="-16"
       cx="-19.5"
       style="opacity:0.2" />
    <circle
       id="circle25"
       transform="matrix(0,-1,-1,0,0,0)"
       r="7"
       cy="-16"
       cx="-19"
       style="fill:#fec006" />
    <circle
       id="circle27"
       transform="matrix(0,-1,-1,0,0,0)"
       r="3"
       cy="-16"
       cx="-19"
       style="fill:#3f3f3f" />
    <circle
       id="circle29"
       transform="rotate(90)"
       r="1.5"
       cy="-9.5"
       cx="6.5"
       style="fill:#3f3f3f" />
    <circle
       id="circle31"
       transform="rotate(90)"
       r="1.5"
       cy="-22.5"
       cx="6.5"
       style="fill:#3f3f3f" />
    <path
       id="path33"
       d="M 6.375,2 C 5.61325,2 5,2.6247906 5,3.4003906 v 1 C 5,3.6247906 5.61325,3 6.375,3 h 19.25 C 26.38675,3 27,3.6247906 27,4.4003906 v -1 C 27,2.6247906 26.38675,2 25.625,2 Z"
       style="opacity:0.1;fill:#ffffff"
       inkscape:connector-curvature="0" />
  </g>
  <g
     id="g88"
     transform="matrix(0.78645878,0,0,0.78645878,58.544692,-769.0902)">
    <path
       id="path56"
       d="m 3,1108.6271 v 1 c 0,2.7089 2.0181735,4.8926 4.5253906,4.8926 H 56.474609 c 2.507217,0 4.525391,-2.1837 4.525391,-4.8926 v -1 c 0,2.7089 -2.018174,4.8926 -4.525391,4.8926 H 7.5253906 C 5.0181735,1113.5197 3,1111.336 3,1108.6271 Z"
       style="opacity:0.2"
       inkscape:connector-curvature="0" />
    <path
       id="path58"
       d="m 7.5258554,1066.5196 c -2.507217,0 -4.5258558,2.1833 -4.5258558,4.8922 v 37.2156 c 0,2.7089 2.0186387,4.8922 4.5258558,4.8922 H 56.474144 c 2.507217,0 4.525856,-2.1833 4.525856,-4.8922 v -37.2156 c 0,-2.7089 -2.018639,-4.8922 -4.525856,-4.8922 z m 12.0455726,17.2794 a 6.2142858,6.220599 0 0 1 6.214286,6.2207 6.2142858,6.220599 0 0 1 -6.214286,6.2205 6.2142858,6.220599 0 0 1 -6.214285,-6.2205 6.2142858,6.220599 0 0 1 6.214285,-6.2207 z m 24.857144,0 a 6.2142858,6.220599 0 0 1 6.214285,6.2207 6.2142858,6.220599 0 0 1 -6.214285,6.2205 6.2142858,6.220599 0 0 1 -6.214286,-6.2205 6.2142858,6.220599 0 0 1 6.214286,-6.2207 z"
       style="fill:#3f3f3f"
       inkscape:connector-curvature="0" />
    <path
       id="path60"
       d="m 8.9999998,1113.5197 5.4117632,-10 h 35.176472 l 5.411765,10 z"
       style="fill:#4f4f4f"
       inkscape:connector-curvature="0" />
    <path
       id="path62"
       d="m 11.30687,1072.5197 c -1.278768,0 -2.3068701,1.2071 -2.3068701,2.7083 v 8.2917 H 55 v -8.2917 c 0,-1.5012 -1.028107,-2.7083 -2.306871,-2.7083 z"
       style="fill:#e4e4e4"
       inkscape:connector-curvature="0" />
    <path
       id="path64"
       d="M 9,25 V 39.451172 C 9,40.864072 10.027873,42 11.306641,42 H 52.693359 C 53.972123,42 55,40.864072 55,39.451172 V 25 Z m 11,1.5 A 4.5,4.5 0 0 1 24.5,31 4.5,4.5 0 0 1 20,35.5 4.5,4.5 0 0 1 15.5,31 4.5,4.5 0 0 1 20,26.5 Z m 24,0 A 4.5,4.5 0 0 1 48.5,31 4.5,4.5 0 0 1 44,35.5 4.5,4.5 0 0 1 39.5,31 4.5,4.5 0 0 1 44,26.5 Z"
       transform="translate(0,1058.5197)"
       style="fill:#1eb259"
       inkscape:connector-curvature="0" />
    <circle
       id="circle66"
       r="2.5"
       cy="1108.02"
       cx="19.5"
       style="opacity:0.4" />
    <path
       id="path68"
       d="m 20,25 a 6,6 0 0 0 -6,6 6,6 0 0 0 6,6 h 24 a 6,6 0 0 0 6,-6 6,6 0 0 0 -6,-6 z m 0,2 a 4,4 0 0 1 4,4 4,4 0 0 1 -4,4 4,4 0 0 1 -4,-4 4,4 0 0 1 4,-4 z m 24,0 a 4,4 0 0 1 4,4 4,4 0 0 1 -4,4 4,4 0 0 1 -4,-4 4,4 0 0 1 4,-4 z"
       transform="translate(0,1058.5197)"
       style="fill:#3f3f3f"
       inkscape:connector-curvature="0" />
    <g
       id="g74"
       transform="matrix(1.0137931,0,0,1.0862069,-0.44136325,-94.492961)">
      <rect
         id="rect70"
         y="1087.28"
         x="25.09"
         height="5.5240002"
         width="13.81"
         style="fill:#cccccc" />
      <path
         id="path72"
         d="m 25.095235,1087.2815 v 5.5238 h 5.435294 c 0.316646,-0.8865 0.479913,-1.8205 0.482789,-2.7618 -0.0029,-0.9414 -0.16612,-1.8754 -0.482789,-2.762 z"
         style="fill:#874f29"
         inkscape:connector-curvature="0" />
    </g>
    <circle
       id="circle76"
       r="2.5"
       cy="1108.02"
       cx="44.5"
       style="opacity:0.4" />
    <path
       id="path78"
       d="M 7.5253906,8 C 5.0181736,8 3,10.183678 3,12.892578 v 1 C 3,11.183678 5.0181736,9 7.5253906,9 H 56.474609 C 58.981826,9 61,11.183678 61,13.892578 v -1 C 61,10.183678 58.981826,8 56.474609,8 Z"
       transform="translate(0,1058.5197)"
       style="opacity:0.1;fill:#ffffff"
       inkscape:connector-curvature="0" />
    <path
       id="path80"
       d="m 9,39.451172 v 1 C 9,41.864072 10.027873,43 11.306641,43 H 52.693359 C 53.972123,43 55,41.864072 55,40.451172 v -1 C 55,40.864072 53.972123,42 52.693359,42 H 11.306641 C 10.027873,42 9,40.864072 9,39.451172 Z"
       transform="translate(0,1058.5197)"
       style="opacity:0.2"
       inkscape:connector-curvature="0" />
    <rect
       id="rect82"
       y="1086.52"
       x="25"
       height="1"
       width="14"
       style="opacity:0.2" />
    <path
       id="path84"
       d="m 20,27 a 4,4 0 0 0 -4,4 4,4 0 0 0 0.03516,0.505859 A 4,4 0 0 1 20,28 4,4 0 0 1 23.964844,31.494141 4,4 0 0 0 24,31 4,4 0 0 0 20,27 Z m 24,0 a 4,4 0 0 0 -4,4 4,4 0 0 0 0.03516,0.505859 A 4,4 0 0 1 44,28 4,4 0 0 1 47.964844,31.494141 4,4 0 0 0 48,31 4,4 0 0 0 44,27 Z"
       transform="translate(0,1058.5197)"
       style="opacity:0.2"
       inkscape:connector-curvature="0" />
    <path
       id="path86"
       d="M 14.412109,45 9,55 h 0.5410156 l 4.8710934,-9 h 35.175782 l 4.871093,9 H 55 L 49.587891,45 Z"
       transform="translate(0,1058.5197)"
       style="opacity:0.1;fill:#ffffff"
       inkscape:connector-curvature="0" />
  </g>
  <g
     id="g194"
     transform="matrix(0.95535714,0,0,0.95535714,91.87469,61.740179)">
    <path
       id="path168"
       d="m 13.801454,38.00012 c -1.129914,2.8e-4 -2.148988,0.678902 -2.583786,1.720703 L 4.2183064,56.127091 C 3.4499506,57.969165 4.8043832,59.9994 6.8020924,60 H 57.197819 C 59.195508,59.99938 60.55,57.969145 59.781605,56.127091 L 52.782243,39.720823 C 52.347425,38.679022 51.328411,38.0004 50.198457,38.00012 Z"
       style="fill:#ff8800;fill-rule:evenodd"
       inkscape:connector-curvature="0" />
    <path
       id="path170"
       d="m 13.797406,38 c -1.130087,2.8e-4 -2.147273,0.679405 -2.582137,1.720771 L 4.2149822,56.117906 c -0.2195779,0.52612 -0.2619132,1.06724 -0.1679757,1.572328 0.035224,-0.19104 0.088891,-0.382798 0.1679757,-0.572288 L 11.215269,40.720811 c 0.434864,-1.041366 1.45205,-1.720491 2.582137,-1.720771 h 36.403832 c 1.130066,2.8e-4 2.147253,0.679405 2.582137,1.720771 l 7.000286,16.397135 c 0.08042,0.19272 0.132885,0.387783 0.167976,0.582054 0.09631,-0.507825 0.05299,-1.052568 -0.167976,-1.582094 L 52.783375,39.720771 C 52.348491,38.679405 51.331304,38.00028 50.201238,38 Z"
       style="opacity:0.2;fill:#ffffff;fill-rule:evenodd"
       inkscape:connector-curvature="0" />
    <path
       id="path172"
       d="m 32.001848,4.0009564 c -1.271753,-0.014 -2.568586,0.2017389 -3.849579,0.7164301 -0.793816,0.3192903 -1.398092,0.9840546 -1.640491,1.8047142 l -2.575586,8.7064403 c 4.073378,8.760846 12.262333,2.870677 16.120512,0 L 37.481118,6.5221007 C 37.22426,5.6534554 36.563163,4.9627492 35.706668,4.6681608 34.520194,4.259641 33.273681,4.0151763 32.001888,4.0009564 Z M 20.62391,26.429122 17.516727,36.930135 c 1.005834,8.913263 16.661109,7.050882 28.855843,-0.357494 L 43.371786,26.430262 c -7.699358,3.062497 -10.822141,-5.870968 -22.747876,0 z"
       style="fill:#ff8800;fill-rule:evenodd"
       inkscape:connector-curvature="0" />
    <path
       id="path174"
       d="M 4.0444692,57.72 C 3.7449348,59.378608 4.9920126,61 6.7784617,61 H 57.221501 c 1.786576,-5.61e-4 3.033667,-1.620273 2.733992,-3.28 -0.236418,1.253896 -1.313542,2.281717 -2.733992,2.282163 H 6.7784617 c -1.4203064,0 -2.4974809,-1.028614 -2.7339925,-2.282163 z"
       style="opacity:0.2;fill-rule:evenodd"
       inkscape:connector-curvature="0" />
    <path
       id="path176"
       d="m 23.93712,15.400254 -6.42021,21.579825 3.107998,-10.441787 c 8.574749,3.828987 15.048764,3.045803 22.749458,0 l 3.001192,10.087493 c -12.18678,7.342472 -25.841655,2.112626 -28.857848,0.354094 l -2.202741,7.400359 c -0.341482,1.149354 0.09473,2.387349 1.082869,3.073256 4.315276,2.992689 9.919435,4.198001 15.497993,4.144887 5.578557,-0.05312 11.174315,-1.372015 15.569197,-4.05517 1.078488,-0.658972 1.578541,-1.955811 1.219597,-3.162973 L 40.060074,15.400254 c -3.860849,2.784807 -12.261985,2.784807 -16.122834,0 z"
       style="fill:#ffffff;fill-rule:evenodd"
       inkscape:connector-curvature="0" />
    <path
       id="path178"
       d="m 31.767578,4 c -2.972034,0 -4.947266,0.9030976 -4.947266,2.0957031 0,0.1607077 0.05164,0.3248112 0.144532,0.4882813 C 27.45082,5.656355 29.242274,5 31.767578,5 34.27554,5 36.540735,5.8209478 37.193359,6.7929688 37.322024,6.6335481 37.400391,6.4815515 37.400391,6.3417969 37.400351,5.1492334 34.73961,4 31.767578,4 Z"
       style="opacity:0.2;fill:#ffffff"
       inkscape:connector-curvature="0" />
  </g>
  <g
     id="g166"
     transform="matrix(1.0201457,0,0,1.0201457,12.039487,15.48362)">
    <path
       id="path143"
       d="M 4.0508,31 C 4.039,31.334 4,31.662 4,32 4,47.512 16.488,60 32,60 47.512,60 60,47.512 60,32 c 0,-0.33768 -0.03904,-0.66528 -0.05078,-1 -0.528,15.042 -12.776,27 -27.95,27 -15.1744,0 -27.422,-11.958 -27.95,-27 z"
       style="opacity:0.2"
       inkscape:connector-curvature="0" />
    <rect
       id="rect145"
       transform="matrix(0,-1,-1,0,0,0)"
       ry="28"
       rx="28"
       y="-60"
       x="-59"
       height="56"
       width="56"
       style="fill:#1ed760" />
    <path
       id="path147"
       d="M 32,3 C 16.488,3 4,15.488 4,31 4,31.113448 4.011281,31.224113 4.017578,31.335938 4.3691213,16.134181 16.710728,4 32,4 h 0.002 c 15.289273,0 27.630879,12.134181 27.982422,27.335938 0.0063,-0.111825 0.01758,-0.22249 0.01758,-0.335938 0,-15.512 -12.488,-28 -28,-28 z"
       style="opacity:0.2;fill:#ffffff"
       inkscape:connector-curvature="0" />
    <path
       id="path149"
       d="m 28.114,22.00007 c -3.3922,-4.26e-4 -6.6722,0.34734 -9.4688,1.04166 -1.43652,0.35666 -1.5432,0.39824 -1.9427,0.73438 -0.49154,0.41364 -0.70282,0.86764 -0.70312,1.52084 -4.01e-4,0.80888 0.3861,1.43264 1.11458,1.79166 0.59638,0.29388 0.98284,0.28354 2.2864,-0.04688 1.31832,-0.3341 3.1868,-0.65464 4.823,-0.82812 1.66378,-0.17626 6.9146,-0.14698 8.5938,0.04688 4.5518,0.52586 7.796,1.39086 10.9376,2.9166 0.8038,0.39038 1.60034,0.74252 1.77084,0.78124 0.89928,0.20578 1.97016,-0.34488 2.3438,-1.20312 0.18602,-0.42726 0.16928,-1.2137 -0.03126,-1.63542 -0.2477,-0.52116 -0.75372,-0.89426 -2.099,-1.54688 -2.2854,-1.10876 -4.7446,-1.94218 -7.4896,-2.5312 -3.239,-0.69506 -6.7432,-1.04124 -10.1354,-1.04166 z m -1.35832,8.0078 c -0.6039,0.0088 -1.12452,0.02952 -1.47656,0.0651 -2.2812,0.23006 -5.242,0.85778 -6.1822,1.3125 -0.98916,0.47834 -1.3386,2.01632 -0.72916,3.00146 0.23358,0.37762 0.93124,0.79688 1.32812,0.79688 0.14956,0 0.86824,-0.16736 1.59896,-0.3698 2.1316,-0.59062 3.5592,-0.7836 6.1614,-0.83334 1.6869,-0.03176 3.1687,-0.0044 4.1525,0.10936 4.1778,0.48256 7.84933,1.30411 11.39153,3.38923 0.48706,0.28658 0.99008,0.52114 1.1198,0.52084 1.0544,-0.0024 1.9719,-1.3047 1.79166,-2.35566 -0.1575,-0.91792 -0.55258,-1.30156 -2.3646,-2.3124 -3.0006,-1.6741 -6.89393,-2.54703 -10.80833,-3.12363 -0.67062,-0.09864 -2.0354,-0.16526 -3.4062,-0.1927 -0.68544,-0.014 -1.97316,-0.0166 -2.57706,-0.008 z m 2.22259,7.99961 c -0.4839,0.0088 -0.90062,0.02992 -1.1823,0.06548 -1.82486,0.23006 -4.1956,0.85778 -4.948,1.3125 -0.79136,0.47834 -1.07084,2.0162 -0.58334,3.0013 0.18688,0.37762 0.745,0.79688 1.0625,0.79688 0.11964,0 0.69668,-0.16736 1.28124,-0.3698 1.70528,-0.5906 2.8452,-0.78362 4.927,-0.83334 1.34944,-0.03174 1.36419,-0.0044 2.15139,0.10936 3.3422,0.48256 5.19738,1.30418 8.03118,3.3893 0.3896,0.28658 0.79738,0.52112 0.90104,0.52084 0.84358,-0.0024 1.57158,-1.10524 1.42708,-2.1562 -0.12598,-0.91792 -0.43578,-1.30156 -1.88542,-2.3124 -2.4006,-1.6741 -4.43618,-2.7464 -7.56758,-3.323 -0.53658,-0.09864 -1.62722,-0.16566 -2.724,-0.19308 -0.54834,-0.014 -0.40701,-0.0166 -0.89093,-0.008 z"
       style="opacity:0.2"
       inkscape:connector-curvature="0" />
    <path
       id="path151"
       d="m 28.114,21 c -3.3922,-4.26e-4 -6.6722,0.34734 -9.4688,1.04166 -1.43652,0.35666 -1.5432,0.39824 -1.9427,0.73438 -0.49154,0.41364 -0.70282,0.86764 -0.70312,1.52084 -4.01e-4,0.80888 0.3861,1.43264 1.11458,1.79166 0.59638,0.29388 0.98284,0.28354 2.2864,-0.04688 1.31832,-0.3341 3.1868,-0.65464 4.823,-0.82812 1.66378,-0.17626 6.9146,-0.14698 8.5938,0.04688 4.5518,0.52586 7.796,1.39086 10.9376,2.9166 0.8038,0.39038 1.60034,0.74252 1.77084,0.78124 0.89928,0.20578 1.97016,-0.34488 2.3438,-1.20312 0.18602,-0.42726 0.16928,-1.2137 -0.03126,-1.63542 -0.2477,-0.52116 -0.75372,-0.89426 -2.099,-1.54688 -2.2854,-1.10876 -4.7446,-1.94218 -7.4896,-2.5312 -3.239,-0.69506 -6.7432,-1.04124 -10.1354,-1.04166 z m -1.35832,8.0078 c -0.6039,0.0088 -1.12452,0.02952 -1.47656,0.0651 -2.2812,0.23006 -5.242,0.85778 -6.1822,1.3125 -0.98916,0.47834 -1.3386,2.01632 -0.72916,3.00146 0.23358,0.37762 0.93124,0.79688 1.32812,0.79688 0.14956,0 0.86824,-0.16736 1.59896,-0.3698 2.1316,-0.59062 3.5592,-0.7836 6.1614,-0.83334 1.6869,-0.03176 3.1687,-0.0044 4.1525,0.10936 4.1778,0.48256 7.84933,1.30411 11.39153,3.38923 0.48706,0.28658 0.99008,0.52114 1.1198,0.52084 1.0544,-0.0024 1.9719,-1.3047 1.79166,-2.35566 -0.1575,-0.91792 -0.55258,-1.30156 -2.3646,-2.3124 -3.0006,-1.6741 -6.89393,-2.54703 -10.80833,-3.12363 -0.67062,-0.09864 -2.0354,-0.16526 -3.4062,-0.1927 -0.68544,-0.014 -1.97316,-0.0166 -2.57706,-0.008 z m 2.22259,7.99961 c -0.4839,0.0088 -0.90062,0.02992 -1.1823,0.06548 -1.82486,0.23006 -4.1956,0.85778 -4.948,1.3125 -0.79136,0.47834 -1.07084,2.0162 -0.58334,3.0013 0.18688,0.37762 0.745,0.79688 1.0625,0.79688 0.11964,0 0.69668,-0.16736 1.28124,-0.3698 1.70528,-0.5906 2.8452,-0.78362 4.927,-0.83334 1.34944,-0.03174 1.36419,-0.0044 2.15139,0.10936 3.3422,0.48256 5.19738,1.30418 8.03118,3.3893 0.3896,0.28658 0.79738,0.52112 0.90104,0.52084 0.84358,-0.0024 1.57158,-1.10524 1.42708,-2.1562 -0.12598,-0.91792 -0.43578,-1.30156 -1.88542,-2.3124 -2.4006,-1.6741 -4.43618,-2.7464 -7.56758,-3.323 -0.53658,-0.09864 -1.62722,-0.16566 -2.724,-0.19308 -0.54834,-0.014 -0.40701,-0.0166 -0.89093,-0.008 z"
       style="fill:#ffffff"
       inkscape:connector-curvature="0" />
  </g>
  <g
     id="g222"
     transform="translate(18.5,62.500298)">
    <path
       id="path196"
       d="M 17.453281,5.006411 C 12.206532,5.2385626 6.267351,11.700745 4.5110866,20.70595 c -0.4178501,2.25644 -0.4999878,4.065733 -0.511086,6.104178 0.00489,0.185182 0.0051,0.368762 0.013678,0.555143 0.7083492,18.300946 15.6091594,33.083228 33.9587244,33.614862 0.09358,0.0039 0.185752,0.0053 0.279023,0.0083 1.202986,0.04705 2.571367,-0.05981 3.669147,-0.134164 C 55.744917,59.504717 64.764022,48.304743 57.323461,42.12174 53.111906,38.62133 45.349006,36.115015 37.225612,28.062673 28.656825,19.566427 26.21858,11.516603 22.628881,7.3637178 21.149075,5.6518648 19.347418,4.9226017 17.453281,5.006411 Z"
       style="opacity:0.2"
       inkscape:connector-curvature="0" />
    <path
       id="path198"
       d="M 17.453281,4.0064524 C 12.206532,4.238604 6.267351,10.700786 4.5110866,19.705991 c -0.4178501,2.25644 -0.4999878,4.065733 -0.511086,6.104178 0.00489,0.185182 0.0051,0.368762 0.013678,0.555143 0.7083492,18.300946 15.6091594,33.083228 33.9587244,33.614862 0.09358,0.0039 0.185752,0.0053 0.279023,0.0083 1.202986,0.04705 2.571367,-0.05981 3.669147,-0.134164 C 55.744917,58.504758 64.764022,47.304784 57.323461,41.121781 53.111906,37.621371 45.349006,35.115056 37.225612,27.062714 28.656825,18.566468 26.21858,10.516644 22.628881,6.3637592 21.149075,4.6519062 19.347418,3.9226431 17.453281,4.0064524 Z"
       style="fill:#f17623"
       inkscape:connector-curvature="0" />
    <path
       id="path200"
       d="M 18.890625,4.1074219 C 13.068254,10.104082 10.003511,17.146022 10,25 c -6e-7,16.237174 13.912252,28.784483 29,29 7.560368,-0.0091 14.075712,-2.735833 20.871094,-8.830078 -0.291323,-1.464997 -1.106588,-2.85197 -2.546875,-4.048828 C 53.112664,37.620684 45.349956,35.114842 37.226562,27.0625 28.657776,18.566254 26.218605,10.516166 22.628906,6.3632812 21.52908,5.0909922 20.251853,4.3637773 18.890625,4.1074219 Z"
       style="fill:#ffbf55"
       inkscape:connector-curvature="0" />
    <path
       id="path202"
       d="M 18.722656,5.3065992 A 29,29 0 0 0 10,25.999959 a 29,29 0 0 0 29,29 A 29,29 0 0 0 59.734375,46.267537 55.752213,55.752213 0 0 1 56.287109,45.378865 26,26 0 0 1 39,51.999959 a 26,26 0 0 1 -26,-26 26,26 0 0 1 6.652344,-17.3281254 55.752213,55.752213 0 0 1 -0.929688,-3.3652344 z"
       style="opacity:0.2"
       inkscape:connector-curvature="0" />
    <path
       id="path204"
       d="M 18.722656,4.3066406 A 29,29 0 0 0 10,25 29,29 0 0 0 39,54 29,29 0 0 0 59.734375,45.267578 55.752213,55.752213 0 0 1 56.287109,44.378906 26,26 0 0 1 39,51 26,26 0 0 1 13,25 26,26 0 0 1 19.652344,7.671875 55.752213,55.752213 0 0 1 18.722656,4.3066406 Z"
       style="fill:#ffffff"
       inkscape:connector-curvature="0" />
    <path
       id="path206"
       d="M 17.453125,4.0058594 C 12.206376,4.238011 6.2679831,10.699873 4.5117188,19.705078 4.0938687,21.961518 4.0110982,23.772102 4,25.810547 4.0036,25.946823 4.00604,26.082455 4.00977,26.21875 4.034764,24.416766 4.1351941,22.73838 4.5117232,20.705078 6.2679831,11.699873 12.206376,5.238011 17.453125,5.0058594 c 1.894137,-0.083809 3.695975,0.6455689 5.175781,2.3574218 3.589699,4.1528848 6.02887,12.2029728 14.597656,20.6992188 8.123394,8.052342 15.886102,10.558184 20.097657,14.058594 1.680408,1.396395 2.512849,3.050188 2.648437,4.787109 0.152427,-2.098512 -0.648161,-4.124908 -2.648437,-5.787109 C 53.112664,37.620684 45.349956,35.114842 37.226562,27.0625 28.657776,18.566254 26.218605,10.516166 22.628906,6.3632812 21.1491,4.6514283 19.347262,3.9220501 17.453125,4.0058594 Z"
       style="opacity:0.2;fill:#ffffff"
       inkscape:connector-curvature="0" />
  </g>
</svg>
