<?xml version="1.0" encoding="UTF-8" standalone="no"?>
<svg
   xmlns:dc="http://purl.org/dc/elements/1.1/"
   xmlns:cc="http://creativecommons.org/ns#"
   xmlns:rdf="http://www.w3.org/1999/02/22-rdf-syntax-ns#"
   xmlns:svg="http://www.w3.org/2000/svg"
   xmlns="http://www.w3.org/2000/svg"
   xmlns:sodipodi="http://sodipodi.sourceforge.net/DTD/sodipodi-0.dtd"
   xmlns:inkscape="http://www.inkscape.org/namespaces/inkscape"
   height="168px"
   width="168px"
   version="1.1"
   viewBox="0 0 168 168"
   id="svg3763"
   sodipodi:docname="vlc.svg"
   inkscape:version="0.92.4 5da689c313, 2019-01-14">
  <metadata
     id="metadata3769">
    <rdf:RDF>
      <cc:Work
         rdf:about="">
        <dc:format>image/svg+xml</dc:format>
        <dc:type
           rdf:resource="http://purl.org/dc/dcmitype/StillImage" />
        <dc:title />
      </cc:Work>
    </rdf:RDF>
  </metadata>
  <defs
     id="defs3767">
    <clipPath
       clipPathUnits="userSpaceOnUse"
       id="clipPath4708">
      <rect
         ry="7.3642473"
         y="-0.0037103265"
         x="-8.5311403e-05"
         height="167.99701"
         width="167.99701"
         id="rect4710"
         style="fill:#f9f9f9;fill-opacity:1;stroke-width:1.13148677" />
    </clipPath>
    <filter
       style="color-interpolation-filters:sRGB;"
       inkscape:label="Drop Shadow"
       id="filter6600">
      <feFlood
         flood-opacity="0.654902"
         flood-color="rgb(0,0,0)"
         result="flood"
         id="feFlood6590" />
      <feComposite
         in="flood"
         in2="SourceGraphic"
         operator="in"
         result="composite1"
         id="feComposite6592" />
      <feGaussianBlur
         in="composite1"
         stdDeviation="1.6"
         result="blur"
         id="feGaussianBlur6594" />
      <feOffset
         dx="0"
         dy="0"
         result="offset"
         id="feOffset6596" />
      <feComposite
         in="SourceGraphic"
         in2="offset"
         operator="over"
         result="composite2"
         id="feComposite6598" />
    </filter>
  </defs>
  <sodipodi:namedview
     pagecolor="#ffffff"
     bordercolor="#666666"
     borderopacity="1"
     objecttolerance="10"
     gridtolerance="10"
     guidetolerance="10"
     inkscape:pageopacity="0"
     inkscape:pageshadow="2"
     inkscape:window-width="944"
     inkscape:window-height="1027"
     id="namedview3765"
     showgrid="false"
     inkscape:zoom="2.8284271"
     inkscape:cx="59.219327"
     inkscape:cy="46.733684"
     inkscape:window-x="8"
     inkscape:window-y="8"
     inkscape:window-maximized="1"
     inkscape:current-layer="svg3763"
     inkscape:snap-global="true"
     inkscape:snap-bbox="false" />
  <rect
     style="fill:#d7e3f4;fill-opacity:1;stroke-width:1.13148677"
     id="rect54"
     width="167.99701"
     height="167.99701"
     x="0.0014953613"
     y="0.0014953613"
     ry="17.97085" />
  <g
     id="g194"
     transform="matrix(2.3819761,0,0,2.3819761,7.7767641,6.5857767)">
    <path
       id="path168"
       d="m 13.801454,38.00012 c -1.129914,2.8e-4 -2.148988,0.678902 -2.583786,1.720703 L 4.2183064,56.127091 C 3.4499506,57.969165 4.8043832,59.9994 6.8020924,60 H 57.197819 C 59.195508,59.99938 60.55,57.969145 59.781605,56.127091 L 52.782243,39.720823 C 52.347425,38.679022 51.328411,38.0004 50.198457,38.00012 Z"
       style="fill:#ff8800;fill-rule:evenodd"
       inkscape:connector-curvature="0" />
    <path
       id="path170"
       d="m 13.797406,38 c -1.130087,2.8e-4 -2.147273,0.679405 -2.582137,1.720771 L 4.2149822,56.117906 c -0.2195779,0.52612 -0.2619132,1.06724 -0.1679757,1.572328 0.035224,-0.19104 0.088891,-0.382798 0.1679757,-0.572288 L 11.215269,40.720811 c 0.434864,-1.041366 1.45205,-1.720491 2.582137,-1.720771 h 36.403832 c 1.130066,2.8e-4 2.147253,0.679405 2.582137,1.720771 l 7.000286,16.397135 c 0.08042,0.19272 0.132885,0.387783 0.167976,0.582054 0.09631,-0.507825 0.05299,-1.052568 -0.167976,-1.582094 L 52.783375,39.720771 C 52.348491,38.679405 51.331304,38.00028 50.201238,38 Z"
       style="opacity:0.2;fill:#ffffff;fill-rule:evenodd"
       inkscape:connector-curvature="0" />
    <path
       id="path172"
       d="m 32.001848,4.0009564 c -1.271753,-0.014 -2.568586,0.2017389 -3.849579,0.7164301 -0.793816,0.3192903 -1.398092,0.9840546 -1.640491,1.8047142 l -2.575586,8.7064403 c 4.073378,8.760846 12.262333,2.870677 16.120512,0 L 37.481118,6.5221007 C 37.22426,5.6534554 36.563163,4.9627492 35.706668,4.6681608 34.520194,4.259641 33.273681,4.0151763 32.001888,4.0009564 Z M 20.62391,26.429122 17.516727,36.930135 c 1.005834,8.913263 16.661109,7.050882 28.855843,-0.357494 L 43.371786,26.430262 c -7.699358,3.062497 -10.822141,-5.870968 -22.747876,0 z"
       style="fill:#ff8800;fill-rule:evenodd"
       inkscape:connector-curvature="0" />
    <path
       id="path174"
       d="M 4.0444692,57.72 C 3.7449348,59.378608 4.9920126,61 6.7784617,61 H 57.221501 c 1.786576,-5.61e-4 3.033667,-1.620273 2.733992,-3.28 -0.236418,1.253896 -1.313542,2.281717 -2.733992,2.282163 H 6.7784617 c -1.4203064,0 -2.4974809,-1.028614 -2.7339925,-2.282163 z"
       style="opacity:0.2;fill-rule:evenodd"
       inkscape:connector-curvature="0" />
    <path
       id="path176"
       d="m 23.93712,15.400254 -6.42021,21.579825 3.107998,-10.441787 c 8.574749,3.828987 15.048764,3.045803 22.749458,0 l 3.001192,10.087493 c -12.18678,7.342472 -25.841655,2.112626 -28.857848,0.354094 l -2.202741,7.400359 c -0.341482,1.149354 0.09473,2.387349 1.082869,3.073256 4.315276,2.992689 9.919435,4.198001 15.497993,4.144887 5.578557,-0.05312 11.174315,-1.372015 15.569197,-4.05517 1.078488,-0.658972 1.578541,-1.955811 1.219597,-3.162973 L 40.060074,15.400254 c -3.860849,2.784807 -12.261985,2.784807 -16.122834,0 z"
       style="fill:#ffffff;fill-rule:evenodd"
       inkscape:connector-curvature="0" />
    <path
       id="path178"
       d="m 31.767578,4 c -2.972034,0 -4.947266,0.9030976 -4.947266,2.0957031 0,0.1607077 0.05164,0.3248112 0.144532,0.4882813 C 27.45082,5.656355 29.242274,5 31.767578,5 34.27554,5 36.540735,5.8209478 37.193359,6.7929688 37.322024,6.6335481 37.400391,6.4815515 37.400391,6.3417969 37.400351,5.1492334 34.73961,4 31.767578,4 Z"
       style="opacity:0.2;fill:#ffffff"
       inkscape:connector-curvature="0" />
  </g>
</svg>
