<svg width="256" height="180" viewBox="0 0 256 180" fill="none" xmlns="http://www.w3.org/2000/svg">
<path d="M250.727 28.0427C247.775 17.0786 239.129 8.43389 228.164 5.48203C208.131 0 127.999 0 127.999 0C127.999 0 47.868 0 27.8351 5.27118C17.0807 8.22304 8.22402 17.0786 5.27181 28.0427C0 48.0732 0 89.6101 0 89.6101C0 89.6101 0 131.358 5.27181 151.177C8.22402 162.142 16.8698 170.786 27.8351 173.738C48.0789 179.22 127.999 179.22 127.999 179.22C127.999 179.22 208.131 179.22 228.164 173.949C239.129 170.997 247.775 162.352 250.727 151.388C255.999 131.358 255.999 89.8209 255.999 89.8209C255.999 89.8209 256.21 48.0732 250.727 28.0427Z" fill="#FF0000"/>
<path d="M161.665 128.173C164.168 129.698 167.444 128.91 168.97 126.426C170.506 123.941 169.713 120.699 167.21 119.174C144.753 105.55 116.914 102.38 84.4605 109.741C81.5956 110.387 79.8121 113.215 80.4663 116.053C81.1174 118.892 83.966 120.669 86.8238 120.023C116.48 113.296 141.662 116.043 161.665 128.173Z" fill="white"/>
<path d="M170.262 105.57C173.385 107.479 177.475 106.499 179.398 103.396C181.321 100.3 180.334 96.2407 177.211 94.3319C150.912 78.2883 112.446 73.7737 81.505 83.0938C77.9982 84.1543 76.0174 87.8306 77.0754 91.3181C78.1416 94.7995 81.852 96.7649 85.3649 95.7115C112.452 87.5488 147.361 91.5958 170.262 105.57Z" fill="white"/>
<path d="M81.3148 69.6349C107.531 61.7358 152.835 63.2245 180.293 79.4155H180.297C184.072 81.6475 188.976 80.4083 191.214 76.6492C193.462 72.8951 192.221 68.0401 188.426 65.809C156.813 47.178 106.784 45.4257 76.6888 54.4953C72.4759 55.7658 70.1014 60.1825 71.3771 64.3638C72.6529 68.5431 77.1049 70.9024 81.3148 69.6349Z" fill="white"/>
</svg>
