<?xml version="1.0" encoding="UTF-8" standalone="no"?>
<svg
   xmlns:dc="http://purl.org/dc/elements/1.1/"
   xmlns:cc="http://creativecommons.org/ns#"
   xmlns:rdf="http://www.w3.org/1999/02/22-rdf-syntax-ns#"
   xmlns:svg="http://www.w3.org/2000/svg"
   xmlns="http://www.w3.org/2000/svg"
   xmlns:sodipodi="http://sodipodi.sourceforge.net/DTD/sodipodi-0.dtd"
   xmlns:inkscape="http://www.inkscape.org/namespaces/inkscape"
   height="168px"
   width="168px"
   version="1.1"
   viewBox="0 0 168 168"
   id="svg3763"
   sodipodi:docname="swspotify.svg"
   inkscape:version="0.92.4 5da689c313, 2019-01-14">
  <metadata
     id="metadata3769">
    <rdf:RDF>
      <cc:Work
         rdf:about="">
        <dc:format>image/svg+xml</dc:format>
        <dc:type
           rdf:resource="http://purl.org/dc/dcmitype/StillImage" />
        <dc:title />
      </cc:Work>
    </rdf:RDF>
  </metadata>
  <defs
     id="defs3767">
    <clipPath
       clipPathUnits="userSpaceOnUse"
       id="clipPath5459">
      <rect
         style="fill:#f9f9f9;fill-opacity:1;stroke-width:1.13148677"
         id="rect5461"
         width="167.99701"
         height="167.99701"
         x="-0.40528339"
         y="0.20489004"
         ry="7.3642473" />
    </clipPath>
    <clipPath
       clipPathUnits="userSpaceOnUse"
       id="clipPath2627">
      <rect
         style="fill:#f9f9f9;fill-opacity:1;stroke-width:1.13148677"
         id="rect2629"
         width="167.99701"
         height="167.99701"
         x="0.0014953613"
         y="0.0014953613"
         ry="7.3642473" />
    </clipPath>
  </defs>
  <sodipodi:namedview
     pagecolor="#ffffff"
     bordercolor="#666666"
     borderopacity="1"
     objecttolerance="10"
     gridtolerance="10"
     guidetolerance="10"
     inkscape:pageopacity="0"
     inkscape:pageshadow="2"
     inkscape:window-width="944"
     inkscape:window-height="507"
     id="namedview3765"
     showgrid="false"
     inkscape:zoom="2.4583333"
     inkscape:cx="117.68572"
     inkscape:cy="-10.938238"
     inkscape:window-x="8"
     inkscape:window-y="8"
     inkscape:window-maximized="1"
     inkscape:current-layer="svg3763"
     inkscape:snap-global="true" />
  <rect
     style="fill:#e3d7f4;fill-opacity:1;stroke-width:0.99280846"
     id="rect3791"
     width="168.81355"
     height="167.59323"
     x="-0.81355518"
     y="0.40677908"
     ry="17.938961"
     clip-path="url(#clipPath5459)"
     transform="matrix(1,0,0,1.0011757,0.40677875,-0.40090682)" />
  <g
     id="g166"
     transform="matrix(2.3797226,0,0,2.3797226,7.8464947,9.0387381)">
    <path
       id="path143"
       d="M 4.0508,31 C 4.039,31.334 4,31.662 4,32 4,47.512 16.488,60 32,60 47.512,60 60,47.512 60,32 c 0,-0.33768 -0.03904,-0.66528 -0.05078,-1 -0.528,15.042 -12.776,27 -27.95,27 -15.1744,0 -27.422,-11.958 -27.95,-27 z"
       style="opacity:0.2"
       inkscape:connector-curvature="0" />
    <rect
       id="rect145"
       transform="matrix(0,-1,-1,0,0,0)"
       ry="28"
       rx="28"
       y="-60"
       x="-59"
       height="56"
       width="56"
       style="fill:#1ed760" />
    <path
       id="path147"
       d="M 32,3 C 16.488,3 4,15.488 4,31 4,31.113448 4.011281,31.224113 4.017578,31.335938 4.3691213,16.134181 16.710728,4 32,4 h 0.002 c 15.289273,0 27.630879,12.134181 27.982422,27.335938 0.0063,-0.111825 0.01758,-0.22249 0.01758,-0.335938 0,-15.512 -12.488,-28 -28,-28 z"
       style="opacity:0.2;fill:#ffffff"
       inkscape:connector-curvature="0" />
    <path
       id="path149"
       d="m 28.114,22.00007 c -3.3922,-4.26e-4 -6.6722,0.34734 -9.4688,1.04166 -1.43652,0.35666 -1.5432,0.39824 -1.9427,0.73438 -0.49154,0.41364 -0.70282,0.86764 -0.70312,1.52084 -4.01e-4,0.80888 0.3861,1.43264 1.11458,1.79166 0.59638,0.29388 0.98284,0.28354 2.2864,-0.04688 1.31832,-0.3341 3.1868,-0.65464 4.823,-0.82812 1.66378,-0.17626 6.9146,-0.14698 8.5938,0.04688 4.5518,0.52586 7.796,1.39086 10.9376,2.9166 0.8038,0.39038 1.60034,0.74252 1.77084,0.78124 0.89928,0.20578 1.97016,-0.34488 2.3438,-1.20312 0.18602,-0.42726 0.16928,-1.2137 -0.03126,-1.63542 -0.2477,-0.52116 -0.75372,-0.89426 -2.099,-1.54688 -2.2854,-1.10876 -4.7446,-1.94218 -7.4896,-2.5312 -3.239,-0.69506 -6.7432,-1.04124 -10.1354,-1.04166 z m -1.35832,8.0078 c -0.6039,0.0088 -1.12452,0.02952 -1.47656,0.0651 -2.2812,0.23006 -5.242,0.85778 -6.1822,1.3125 -0.98916,0.47834 -1.3386,2.01632 -0.72916,3.00146 0.23358,0.37762 0.93124,0.79688 1.32812,0.79688 0.14956,0 0.86824,-0.16736 1.59896,-0.3698 2.1316,-0.59062 3.5592,-0.7836 6.1614,-0.83334 1.6869,-0.03176 3.1687,-0.0044 4.1525,0.10936 4.1778,0.48256 7.84933,1.30411 11.39153,3.38923 0.48706,0.28658 0.99008,0.52114 1.1198,0.52084 1.0544,-0.0024 1.9719,-1.3047 1.79166,-2.35566 -0.1575,-0.91792 -0.55258,-1.30156 -2.3646,-2.3124 -3.0006,-1.6741 -6.89393,-2.54703 -10.80833,-3.12363 -0.67062,-0.09864 -2.0354,-0.16526 -3.4062,-0.1927 -0.68544,-0.014 -1.97316,-0.0166 -2.57706,-0.008 z m 2.22259,7.99961 c -0.4839,0.0088 -0.90062,0.02992 -1.1823,0.06548 -1.82486,0.23006 -4.1956,0.85778 -4.948,1.3125 -0.79136,0.47834 -1.07084,2.0162 -0.58334,3.0013 0.18688,0.37762 0.745,0.79688 1.0625,0.79688 0.11964,0 0.69668,-0.16736 1.28124,-0.3698 1.70528,-0.5906 2.8452,-0.78362 4.927,-0.83334 1.34944,-0.03174 1.36419,-0.0044 2.15139,0.10936 3.3422,0.48256 3.951119,0.785411 7.608027,2.610603 1.185256,0.03796 0,0 1.185256,0.03796 0.533675,-0.05733 1.595941,-0.351562 1.470402,-1.307716 -0.12598,-0.91792 -0.340165,-0.888467 -1.789805,-1.899307 -2.4006,-1.6741 -4.43618,-2.7464 -7.56758,-3.323 -0.53658,-0.09864 -1.62722,-0.16566 -2.724,-0.19308 -0.54834,-0.014 -0.40701,-0.0166 -0.89093,-0.008 z"
       style="opacity:0.2"
       inkscape:connector-curvature="0"
       sodipodi:nodetypes="ccccccccccccccccccccscccccccccccccccsccccccccccc" />
    <path
       id="path151"
       d="m 28.114,21 c -3.3922,-4.26e-4 -6.6722,0.34734 -9.4688,1.04166 -1.43652,0.35666 -1.5432,0.39824 -1.9427,0.73438 -0.49154,0.41364 -0.70282,0.86764 -0.70312,1.52084 -4.01e-4,0.80888 0.3861,1.43264 1.11458,1.79166 0.59638,0.29388 0.98284,0.28354 2.2864,-0.04688 1.31832,-0.3341 3.1868,-0.65464 4.823,-0.82812 1.66378,-0.17626 6.9146,-0.14698 8.5938,0.04688 4.5518,0.52586 7.796,1.39086 10.9376,2.9166 0.8038,0.39038 1.60034,0.74252 1.77084,0.78124 0.89928,0.20578 1.97016,-0.34488 2.3438,-1.20312 0.18602,-0.42726 0.16928,-1.2137 -0.03126,-1.63542 -0.2477,-0.52116 -0.75372,-0.89426 -2.099,-1.54688 -2.2854,-1.10876 -4.7446,-1.94218 -7.4896,-2.5312 -3.239,-0.69506 -6.7432,-1.04124 -10.1354,-1.04166 z m -1.35832,8.0078 c -0.6039,0.0088 -1.12452,0.02952 -1.47656,0.0651 -2.2812,0.23006 -5.242,0.85778 -6.1822,1.3125 -0.98916,0.47834 -1.3386,2.01632 -0.72916,3.00146 0.23358,0.37762 0.93124,0.79688 1.32812,0.79688 0.14956,0 0.86824,-0.16736 1.59896,-0.3698 2.1316,-0.59062 3.5592,-0.7836 6.1614,-0.83334 1.6869,-0.03176 3.1687,-0.0044 4.1525,0.10936 4.1778,0.48256 7.84933,1.30411 11.39153,3.38923 0.48706,0.28658 0.99008,0.52114 1.1198,0.52084 1.0544,-0.0024 1.9719,-1.3047 1.79166,-2.35566 -0.1575,-0.91792 -0.55258,-1.30156 -2.3646,-2.3124 -3.0006,-1.6741 -6.89393,-2.54703 -10.80833,-3.12363 -0.67062,-0.09864 -2.0354,-0.16526 -3.4062,-0.1927 -0.68544,-0.014 -1.97316,-0.0166 -2.57706,-0.008 z m 2.22259,7.99961 c -0.4839,0.0088 -0.90062,0.02992 -1.1823,0.06548 -1.82486,0.23006 -4.1956,0.85778 -4.948,1.3125 -0.79136,0.47834 -1.07084,2.0162 -0.58334,3.0013 0.18688,0.37762 0.745,0.79688 1.0625,0.79688 0.11964,0 0.69668,-0.16736 1.28124,-0.3698 1.70528,-0.5906 2.8452,-0.78362 4.927,-0.83334 1.34944,-0.03174 1.36419,-0.0044 2.15139,0.10936 3.3422,0.48256 3.757635,0.691522 7.295991,2.531579 0.3896,0.28658 1.348772,0.30669 1.452432,0.30641 0.84358,-0.0024 1.632845,-0.645747 1.488345,-1.696707 -0.12598,-0.91792 -0.558311,-1.546623 -2.007951,-2.557463 -2.4006,-1.6741 -4.191117,-1.888679 -7.322517,-2.465279 -0.53658,-0.09864 -1.62722,-0.16566 -2.724,-0.19308 -0.54834,-0.014 -0.40701,-0.0166 -0.89093,-0.008 z"
       style="fill:#ffffff"
       inkscape:connector-curvature="0"
       sodipodi:nodetypes="ccccccccccccccccccccscccccccccccccccsccccccccccc" />
  </g>
  <rect
     id="rect3783"
     width="75.983246"
     height="40.677963"
     x="92.016754"
     y="127.32204"
     style="fill:#241c1c;stroke-width:0.68113917;image-rendering:auto"
     ry="8.9533806" />
  <rect
     style="fill:#241c1c;fill-opacity:1;stroke-width:0.45069748"
     id="rect3793-3"
     width="26.647671"
     height="22.169491"
     x="141.35233"
     y="127.32204"
     ry="0" />
  <g
     id="g2994"
     transform="matrix(0.04740472,0,0,0.04740472,133.48803,137.20338)">
    <g
       transform="matrix(2.163871,0,0,2.163871,-3780.4984,-3239.8088)"
       id="g4390">
      <polygon
         transform="matrix(8.9067392,0,0,8.9067392,1731.3252,1456.6689)"
         style="fill:#ffffff;fill-opacity:1"
         points="15,15 15,2.5 32,0 32,15 "
         id="polygon15467" />
      <polygon
         transform="matrix(8.9067392,0,0,8.9067392,1731.3252,1456.6689)"
         style="fill:#ffffff;fill-opacity:1"
         points="0,15 0,4.703 13,2.797 13,15 "
         id="polygon15469" />
      <polygon
         transform="matrix(8.9067392,0,0,8.9067392,1731.3252,1456.6689)"
         style="fill:#ffffff;fill-opacity:1"
         points="15,17 15,29.5 32,32 32,17 "
         id="polygon15471" />
      <polygon
         transform="matrix(8.9067392,0,0,8.9067392,1731.3252,1456.6689)"
         style="fill:#ffffff;fill-opacity:1"
         points="0,17 0,27.297 13,29.203 13,17 "
         id="polygon15473" />
    </g>
  </g>
  <rect
     style="fill:#241c1c;fill-opacity:1"
     id="rect11962"
     width="17.2582"
     height="20.134565"
     x="92.016754"
     y="147.86543"
     ry="0" />
  <g
     id="g2986"
     transform="matrix(0.43888368,0,0,0.43888368,-138.51629,-71.896545)">
    <path
       style="fill:#ffffff;fill-opacity:1;stroke-width:0.18906425"
       id="Apple"
       d="m 572.47806,472.5907 c 2.34239,-2.75405 6.30168,-4.8029 9.56884,-4.94061 0.41674,3.82594 -1.11682,7.65696 -3.38383,10.41753 -2.27064,2.75548 -5.98715,4.90218 -9.63481,4.61591 -0.49573,-3.74332 1.34224,-7.64681 3.4498,-10.09283 z m 18.58689,52.18907 c -2.7113,3.97597 -5.51535,7.92801 -9.9421,8.01064 -4.35645,0.0826 -5.75303,-2.5888 -10.72482,-2.5888 -4.97684,0 -6.53433,2.50617 -10.64725,2.67142 -4.27386,0.16089 -7.52432,-4.29413 -10.25664,-8.2527 -5.58273,-8.09326 -9.84569,-22.88463 -4.11439,-32.86658 2.83811,-4.95728 7.92439,-8.09326 13.43465,-8.17661 4.19774,-0.0775 8.16283,2.83885 10.72555,2.83885 2.56849,0 7.38153,-3.50126 12.44029,-2.98742 2.11771,0.0877 8.06136,0.85593 11.87932,6.45896 -0.30222,0.19857 -7.09454,4.16367 -7.01265,12.4229 0.0826,9.86598 8.61869,13.14474 8.71799,13.18967 -0.0783,0.23191 -1.36542,4.68187 -4.49995,9.27967 z"
       inkscape:connector-curvature="0" />
  </g>
</svg>
